<?xml version='1.0' encoding='iso-8859-1'?>
<!-- Uploaded to: SVG Repo, www.svgrepo.com, Generator: SVG Repo Mixer Tools -->
<svg fill="#000000" height="45px" width="50px" version="1.1" xmlns="http://www.w3.org/2000/svg" viewBox="0 0 470 470" xmlns:xlink="http://www.w3.org/1999/xlink" enable-background="new 0 0 470 470">
  <g>
    <path d="m387.5,313.026c-7.212,0-14.405,0.947-21.38,2.814-4.001,1.071-6.377,5.183-5.306,9.184 1.071,4.002 5.187,6.379 9.185,5.305 5.711-1.528 11.599-2.304 17.501-2.304 37.22,0 67.5,30.28 67.5,67.5 0,4.142 3.357,7.5 7.5,7.5s7.5-3.358 7.5-7.5c0-45.489-37.01-82.499-82.5-82.499z"/>
    <path d="m317.5,272.583c0,4.142 3.357,7.5 7.5,7.5s7.5-3.358 7.5-7.5v-19.556c0-30.327 24.673-55 55-55s55,24.673 55,55v19.556c0,2.133 0.908,4.165 2.497,5.588 6.357,5.69 10.003,13.839 10.003,22.355 0,6.929-2.418,13.687-6.81,19.03-2.629,3.2-2.167,7.926 1.033,10.556 1.396,1.147 3.082,1.706 4.758,1.706 2.166,0 4.315-0.934 5.799-2.738 6.59-8.02 10.22-18.161 10.22-28.554 0-11.616-4.518-22.772-12.5-31.116v-16.384c0-38.598-31.402-70-70-70s-70,31.402-70,70v19.557z"/>
    <path d="m423.8,236.151h-72.6c-3.42,0-6.406,2.313-7.262,5.624-0.954,3.695-1.438,7.48-1.438,11.251 0,24.813 20.187,45 45,45s45-20.187 45-45c0-3.771-0.484-7.556-1.438-11.251-0.856-3.311-3.842-5.624-7.262-5.624zm-36.3,46.875c-16.542,0-30-13.458-30-30 0-0.625 0.021-1.25 0.061-1.875h59.879c0.04,0.625 0.061,1.25 0.061,1.875-0.001,16.542-13.459,30-30.001,30z"/>
    <path d="m123.036,241.483c-2.232-1.116-4.874-1.05-7.048,0.178-4.472,2.529-9.568,3.865-14.738,3.865-15.038,0-27.828-11.225-29.75-26.11-0.32-2.476-1.851-4.631-4.084-5.748s-4.875-1.049-7.049,0.181c-14.105,7.984-22.867,22.996-22.867,39.177 0,24.813 20.187,45 45,45s45-20.187 45-45c0-1.876-0.128-3.826-0.382-5.794-0.319-2.477-1.849-4.631-4.082-5.749zm-40.536,41.543c-16.542,0-30-13.458-30-30 0-7.343 2.708-14.325 7.407-19.716 6.956,16.121 23.04,27.216 41.343,27.216 3.582,0 7.142-0.429 10.599-1.265-2.878,13.56-14.944,23.765-29.349,23.765z"/>
    <path d="m20,318.707c4.142,0 7.5-3.358 7.5-7.5v-58.181c0-30.327 24.673-55 55-55s55,24.673 55,55v20.708c0,4.142 3.358,7.5 7.5,7.5s7.5-3.358 7.5-7.5v-20.708c0-38.598-31.402-70-70-70s-70,31.402-70,70v58.181c0,4.142 3.358,7.5 7.5,7.5z"/>
    <path d="m109.186,325.025c1.071-4.001-1.305-8.113-5.306-9.185-6.976-1.867-14.169-2.814-21.38-2.814-45.491,0-82.5,37.009-82.5,82.5 0,4.142 3.358,7.5 7.5,7.5s7.5-3.358 7.5-7.5c0-37.22 30.28-67.5 67.5-67.5 5.902,0 11.79,0.775 17.501,2.304 4.003,1.069 8.114-1.304 9.185-5.305z"/>
    <path d="m149.18,190.144c-2.215,10.335 0.014,21.166 6.334,29.865 12.154,16.729 35.651,20.45 52.38,8.296 0.978-0.711 1.908-1.481 2.812-2.28 7.553,2.887 15.738,4.484 24.294,4.484s16.741-1.597 24.294-4.484c0.904,0.8 1.834,1.57 2.813,2.28 6.477,4.706 14.106,7.17 21.961,7.17 1.973,0 3.961-0.156 5.946-0.47 9.894-1.567 18.585-6.893 24.472-14.996 6.32-8.699 8.55-19.53 6.336-29.865 7.866-7.06 12.429-17.132 12.429-27.885s-4.563-20.825-12.429-27.885c2.214-10.335-0.016-21.166-6.336-29.865-6.319-8.699-15.932-14.166-26.445-15.253-4.284-9.664-12.453-17.115-22.68-20.438-10.226-3.323-21.215-2.095-30.36,3.204-9.146-5.3-20.135-6.528-30.361-3.204-10.227,3.323-18.396,10.775-22.679,20.438-10.513,1.088-20.126,6.555-26.446,15.253-6.32,8.7-8.549,19.53-6.334,29.865-7.867,7.06-12.43,17.132-12.43,27.885-0.001,10.753 4.561,20.825 12.429,27.885zm32.57-27.885c0-15.609 6.895-30.301 18.49-40.318 8.764,27.939 34.961,47.818 65.135,47.818 7.774,0 15.479-1.332 22.755-3.899-1.857,27.69-24.978,49.649-53.13,49.649-29.362,0-53.25-23.887-53.25-53.25zm-19.831-18.816c2.934-1.928 4.138-5.634 2.897-8.918-2.692-7.127-1.633-15.053 2.833-21.2 4.466-6.146 11.674-9.603 19.287-9.245 3.528,0.172 6.659-2.126 7.586-5.512 2.012-7.348 7.526-13.137 14.752-15.485 7.226-2.349 15.09-0.906 21.038,3.857 2.741,2.195 6.637,2.194 9.377,0 5.947-4.763 13.813-6.204 21.037-3.857 7.226,2.348 12.74,8.137 14.753,15.486 0.927,3.385 4.064,5.666 7.585,5.511 7.606-0.347 14.821,3.099 19.287,9.246s5.525,14.072 2.833,21.2c-1.24,3.284-0.036,6.989 2.897,8.917 6.367,4.185 10.169,11.219 10.169,18.816s-3.802,14.631-10.169,18.816c-2.934,1.928-4.138,5.633-2.897,8.917 2.692,7.128 1.633,15.053-2.833,21.2-3.532,4.862-8.747,8.058-14.684,8.998-4.678,0.741-9.354-0.01-13.51-2.082 17.575-12.36 29.093-32.778 29.093-55.849 0-2.836-0.195-5.794-0.581-8.792-0.318-2.477-1.849-4.632-4.081-5.75-2.231-1.117-4.874-1.051-7.049,0.178-7.941,4.49-16.989,6.864-26.164,6.864-26.692,0-49.394-19.928-52.807-46.354-0.319-2.477-1.851-4.631-4.084-5.748-2.232-1.117-4.875-1.049-7.048,0.181-21.395,12.109-34.686,34.878-34.686,59.42 0,23.068 11.515,43.485 29.087,55.845-9.648,4.789-21.649,2.087-28.188-6.912-4.465-6.147-5.524-14.072-2.833-21.2 1.241-3.284 0.037-6.99-2.897-8.918-6.368-4.184-10.169-11.218-10.169-18.815s3.801-14.631 10.169-18.815z"/>
    <path d="m320.777,299.266c-0.325-0.346-0.673-0.656-1.044-0.927-22.682-19.801-52.33-31.813-84.733-31.813-32.404,0-62.053,12.013-84.736,31.816-0.369,0.269-0.716,0.579-1.04,0.923-26.504,23.643-43.224,58.034-43.224,96.261 0,4.142 3.358,7.5 7.5,7.5s7.5-3.358 7.5-7.5c0-31.706 13.016-60.426 33.979-81.111 22.737,18.009 50.891,27.861 80.021,27.861 29.13,0 57.283-9.852 80.021-27.861 20.963,20.685 33.979,49.405 33.979,81.111 0,4.142 3.357,7.5 7.5,7.5s7.5-3.358 7.5-7.5c0-38.227-16.72-72.617-43.223-96.26zm-85.777,28.01c-24.777,0-48.755-8.067-68.435-22.865 19.072-14.361 42.776-22.885 68.435-22.885 25.659,0 49.363,8.524 68.436,22.885-19.682,14.798-43.659,22.865-68.436,22.865z"/>
  </g>
</svg>